{"title":"Three Days of the Condor 1975 720p BRRip XVID AC3 Multisubs neka","uid":8204936,"size":3209087681,"categoryP":"video","categoryS":"hd___movies","magnet":"?xt=urn:btih:c100e662e6d01d86f6dbcba1924d273794a92542&amp;dn=Three+Days+of+the+Condor+1975+720p+BRRip+XVID+AC3+Multisubs+neka&amp;tr=udp%3A%2F%2Ftracker.openbittorrent.com%3A80&amp;tr=udp%3A%2F%2Fopen.demonii.com%3A1337&amp;tr=udp%3A%2F%2Ftracker.coppersurfer.tk%3A6969&amp;tr=udp%3A%2F%2Fexodus.desync.com%3A6969","seeders":0,"leechers":1,"uploader":"nekanilla","files":14,"time":1362096466,"description":"-----------------------------------------------------------------------------------\n             Three Days of the Condor 1975 720p BRRip XVID AC3 Multisubs nekanilla\n___________________________________________________________________________________\n\n---------------------------------------INFO----------------------------------------\n\nMovie name: Three Days of the Condor\nCountry and year of production: USA / 1975\nSpeech language / subtitle: English / Greek, Brazilian, Bulgarian, Croatian, Danish,\nDutch, English, Spanish, Finnish, French, Persian, Serbian SRT\nGenre: Drama | Mystery \nMovie Length: 117 minutes\nWriter: James Grady, Lorenzo Semple Jr., David Rayfiel\nDirected by: Sydney Pollack\nNominated for 1 Oscar\n___________________________________________________________________________________\n\n---------------------------------------PLOT----------------------------------------\nA bookish CIA researcher finds all his co-workers dead, and must outwit those responsible until he figures out who he can really trust.\n___________________________________________________________________________________\n\n---------------------------------------CAST----------------------------------------\n\nRobert Redford as Joseph Turner\nFaye Dunaway as Kathy Hale\nCliff Robertson as J. Higgins\nMax von Sydow as G. Joubert\nJohn Houseman as Wabash\nAddison Powell as Leonard Atwood\nTina Chen as Janice Chon\nHank Garrett as The Mailman\nCarlin Glynn as Mae Barber\nPatrick Gorman as Martin\n___________________________________________________________________________________\n\n------------------------------------MEDIA INFO-------------------------------------\n     \n                                 Includes sample\nGeneral\nComplete name                  :Three Days of the Condor 1975 720p BRRip XVID AC3.avi\nFormat                         : AVI\nFormat/Info                    : Audio Video Interleave\nFormat profile                 : OpenDML\nFormat settings                : rec\nFile size                      : 2.95 GiB\nDuration                       : 1h 57mn\nOverall bit rate               : 3 607 Kbps\nWriting application            : AVI-Mux GUI 1.17.8.3, Feb 16 201019:42:50\n\nVideo\nID                             : 0\nFormat                         : MPEG-4 Visual\nFormat profile                 : Advanced Simple@L5\nFormat settings, BVOP          : 2\nFormat settings, QPel          : No\nFormat settings, GMC           : No warppoints\nFormat settings, Matrix        : Default (H.263)\nCodec ID                       : XVID\nCodec ID/Hint                  : XviD\nDuration                       : 1h 57mn\nBit rate                       : 3 153 Kbps\nWidth                          : 1 280 pixels\nHeight                         : 536 pixels\nDisplay aspect ratio           : 2.40:1\nFrame rate                     : 23.976 fps\nColor space                    : YUV\nChroma subsampling             : 4:2:0\nBit depth                      : 8 bits\nScan type                      : Progressive\nCompression mode               : Lossy\nBits/(Pixel*Frame)             : 0.192\nStream size                    : 2.58 GiB (87%)\nWriting library                : XviD 1.2.1 (UTC 2008-12-04)\n\nAudio\nID                             : 1\nFormat                         : AC-3\nFormat/Info                    : Audio Coding 3\nCodec ID                       : 2000\nDuration                       : 1h 57mn\nBit rate mode                  : Constant\nBit rate                       : 448 Kbps\nChannel(s)                     : 6 channels\nSampling rate                  : 48.0 KHz\nCompression mode               : Lossy\nStream size                    : 375 MiB (12%)\nAlignment                      : Aligned on interleaves\nTitle                          : Three.Days.Of.The.Condor.1975\n___________________________________________________________________________________\n\n___________________________________________________________________________________\n\n-----------------------------------SCREENSHOTS-------------------------------------\n                         &lt;a href=&quot; http://i.imgur.com/FbHxPzb.jpg&quot; rel=&quot;nofollow&quot; target=&quot;_NEW&quot;&gt; http://i.imgur.com/FbHxPzb.jpg&lt;/a&gt;\n                         &lt;a href=&quot; http://i.imgur.com/Sifd65A.png&quot; rel=&quot;nofollow&quot; target=&quot;_NEW&quot;&gt; http://i.imgur.com/Sifd65A.png&lt;/a&gt;\n                         &lt;a href=&quot; http://i.imgur.com/nVK6rrD.png&quot; rel=&quot;nofollow&quot; target=&quot;_NEW&quot;&gt; http://i.imgur.com/nVK6rrD.png&lt;/a&gt;\n                         &lt;a href=&quot; http://i.imgur.com/skVryls.jpg&quot; rel=&quot;nofollow&quot; target=&quot;_NEW&quot;&gt; http://i.imgur.com/skVryls.jpg&lt;/a&gt;\n___________________________________________________________________________________\n\n                                Source: Three Days Of The Condor 1975 BluRay1080p DTS x264 dxva-FraMeSToR\n\n                                Rip   : By   nekanilla","torrent":{"xt":"urn:btih:c100e662e6d01d86f6dbcba1924d273794a92542","amp;dn":"Three+Days+of+the+Condor+1975+720p+BRRip+XVID+AC3+Multisubs+neka","amp;tr":["udp%3A%2F%2Ftracker.openbittorrent.com%3A80","udp%3A%2F%2Fopen.demonii.com%3A1337","udp%3A%2F%2Ftracker.coppersurfer.tk%3A6969","udp%3A%2F%2Fexodus.desync.com%3A6969"],"infoHash":"c100e662e6d01d86f6dbcba1924d273794a92542","infoHashBuffer":{"type":"Buffer","data":[193,0,230,98,230,208,29,134,246,219,203,161,146,77,39,55,148,169,37,66]},"announce":[],"urlList":[]}}